<svg xmlns="http://www.w3.org/2000/svg" width="43" height="48" viewBox="0 0 43 48"><path d="M42.76 4.87l-.8-3.55A1.714 1.714 0 0 0 39.92.04c-.93.2-1.51 1.1-1.3 2.01l.47 2.13-6.99 2.6a1.68 1.68 0 0 0-1.06 1.93l3.36 15.53c1.51.22 2.77.41 3.62.53L34.69 9.42l7-2.61c.8-.3 1.25-1.12 1.07-1.94z" fill="#7570b4"/><path d="M36.74 41.44c3.44-.48 6.09-3.39 6.09-6.9 0-2.96-1.89-5.5-4.54-6.51 0 0-26.86-4.03-27.58-4.03C4.81 24 0 28.73 0 34.54c0 3.59 1.84 6.77 4.64 8.67l-1.75 1.72a1.66 1.66 0 0 0 0 2.38 1.711 1.711 0 0 0 2.42 0l2.53-2.48c.03-.04.06-.08.1-.12.88.24 1.81.36 2.77.36 1.16 0 14.4-1.95 21.86-3.07.07.11.15.22.25.32l4.99 4.98c.34.34.78.5 1.22.5.43 0 .87-.16 1.2-.48.67-.65.68-1.72.02-2.38zm-26.03-1.61c-2.97 0-5.38-2.37-5.38-5.29 0-2.93 2.41-5.29 5.38-5.29 2.97 0 5.38 2.36 5.38 5.29 0 2.92-2.41 5.29-5.38 5.29zm6.25-24.15c0-.93-.77-1.68-1.71-1.68H7.71C6.77 14 6 14.75 6 15.68c0 .93.77 1.69 1.71 1.69h2.79l1.36 3.21c.69.1 1.76.26 3.46.5.11.02.23.04.35.06l-1.59-3.77h1.17c.94 0 1.71-.76 1.71-1.69z" fill="#ffc800"/></svg>