<svg xmlns="http://www.w3.org/2000/svg" width="16" height="16" viewBox="0 0 16 16"><path fill="#ffc800" d="M6.41 4.84c.11.02.19.11.2.22l.38 4.4.7-2.54a.24.24 0 0 1 .23-.18c.11.01.2.08.23.19l.39 1.7.67-2.82a.25.25 0 0 1 .24-.18c.12.01.21.09.23.2l.5 3.58.22-.73c.03-.1.12-.17.23-.17h5.3V7.3c0-1.13-.91-2.04-2.03-2.04h-3.22V2.03C10.68.91 9.77 0 8.65 0H7.29C6.17 0 5.26.91 5.26 2.03v3.23H2.03C.91 5.26 0 6.17 0 7.3v1.24h4.88L6.15 5a.25.25 0 0 1 .26-.16z"/><path fill="#ffc800" d="M10.04 10.55a.24.24 0 0 1-.22-.2l-.47-3.39-.61 2.59a.24.24 0 1 1-.46 0l-.41-1.78-.81 2.91a.24.24 0 0 1-.23.17c-.13-.01-.22-.1-.23-.21L6.2 6l-.96 2.68a.22.22 0 0 1-.22.16H0c.17.95 1 1.68 2 1.68h3.22v3.23c0 1.12.91 2.03 2.04 2.03H8.61c1.13 0 2.04-.91 2.04-2.03v-3.23h3.22c1.01 0 1.85-.74 2-1.71h-5.1l-.49 1.57a.23.23 0 0 1-.24.17z"/><path fill="#ffc800" d="M15.93 8.67h-5.3c-.11 0-.2.07-.23.17l-.22.73-.5-3.58a.25.25 0 0 0-.23-.2.25.25 0 0 0-.24.18l-.67 2.82-.39-1.7a.26.26 0 0 0-.23-.19c-.1 0-.2.07-.23.18l-.7 2.54-.38-4.4a.24.24 0 0 0-.2-.22.25.25 0 0 0-.26.16L4.88 8.7H0l.03.47h5.02c.1 0 .19-.06.22-.15l.96-2.69.4 4.64c.01.11.1.21.21.22.13 0 .22-.07.25-.18L7.9 8.1l.41 1.78c.02.11.12.18.23.18.11 0 .2-.07.23-.18l.61-2.58.48 3.38c.01.11.1.19.21.2.11.01.21-.06.24-.16l.49-1.57h5.11z"/></svg>