<svg xmlns="http://www.w3.org/2000/svg" width="40" height="48" viewBox="0 0 40 48"><path d="M35.63 15.8l3.01-4.2c.54-.75.36-1.79-.41-2.32L33.95 6.3c-.77-.53-1.82-.35-2.36.41l-2.66 3.71c-1.26-.62-4.09-2.16-8.96-2.16-4.81 0-7.7 1.54-8.95 2.16L8.35 6.71C7.82 5.95 6.76 5.77 6 6.3L1.71 9.28a1.65 1.65 0 0 0-.41 2.32l3.01 4.2C1.61 19.16 0 23.39 0 27.99c0 10.84 8.96 19.66 19.97 19.66 11.01 0 19.97-8.82 19.97-19.66 0-4.6-1.61-8.83-4.31-12.19zM19.97 30.77c-1.56 0-2.82-1.25-2.82-2.78 0-.91.44-1.72 1.13-2.22v-9.74c0-.92.76-1.67 1.69-1.67.94 0 1.69.75 1.69 1.67v9.74c.69.5 1.13 1.31 1.13 2.22 0 1.53-1.26 2.78-2.82 2.78z" fill="#ffc800"/><path d="M27.58 0H12.69C11.76 0 11 .75 11 1.67c0 .92.76 1.66 1.69 1.66h2.46v2.68a23.752 23.752 0 0 1 9.98 0V3.33h2.45c.94 0 1.7-.74 1.7-1.66 0-.92-.76-1.67-1.7-1.67z" fill="#7570b4"/></svg>