<svg xmlns="http://www.w3.org/2000/svg" width="46" height="44" viewBox="0 0 46 44"><path d="M43 11v28.54c0 .83-.67 1.49-1.5 1.49h-37c-.83 0-1.5-.66-1.5-1.49V11H0v30.03C0 42.67 1.34 44 3 44h40c1.66 0 3-1.33 3-2.97V11zm0-11H3C1.34 0 0 1.33 0 2.97V11h46V2.97C46 1.33 44.66 0 43 0zM17 8a2 2 0 0 1-2-2c0-1.11.89-2 2-2a2 2 0 1 1 0 4zm12 0a2 2 0 0 1-2-2c0-1.11.89-2 2-2a2 2 0 1 1 0 4z" fill="#ffc800"/><path d="M36 35a2 2 0 1 1 4 0 2 2 0 1 1-4 0zm-6 0a2 2 0 1 1 4 0 2 2 0 1 1-4 0z" fill="#7570b4"/><path d="M24 35a2 2 0 1 1 4 0 2 2 0 1 1-4 0zm-6 0a2 2 0 1 1 4 0 2 2 0 1 1-4 0zm-6 0a2 2 0 1 1 4 0 2 2 0 1 1-4 0zm-6 0a2 2 0 1 1 4 0 2 2 0 1 1-4 0z" fill="#ffc800"/><path d="M36 29a2 2 0 1 1 4 0 2 2 0 1 1-4 0zm-6 0a2 2 0 1 1 4 0 2 2 0 1 1-4 0z" fill="#7570b4"/><path d="M24 29a2 2 0 1 1 4 0 2 2 0 1 1-4 0zm-6 0a2 2 0 1 1 4 0 2 2 0 1 1-4 0zm-6 0a2 2 0 1 1 4 0 2 2 0 1 1-4 0zm-6 0a2 2 0 1 1 4 0 2 2 0 1 1-4 0z" fill="#ffc800"/><path d="M36 23a2 2 0 1 1 4 0 2 2 0 1 1-4 0zm-6 0a2 2 0 1 1 4 0 2 2 0 1 1-4 0z" fill="#7570b4"/><path d="M24 23a2 2 0 1 1 4 0 2 2 0 1 1-4 0zm-6 0a2 2 0 1 1 4 0 2 2 0 1 1-4 0zm-6 0a2 2 0 1 1 4 0 2 2 0 1 1-4 0zm-6 0a2 2 0 1 1 4 0 2 2 0 1 1-4 0z" fill="#ffc800"/><path d="M36 17a2 2 0 1 1 4 0 2 2 0 1 1-4 0zm-6 0a2 2 0 1 1 4 0 2 2 0 1 1-4 0z" fill="#7570b4"/><path d="M24 17a2 2 0 1 1 4 0 2 2 0 1 1-4 0zm-6 0a2 2 0 1 1 4 0 2 2 0 1 1-4 0zm-6 0a2 2 0 1 1 4 0 2 2 0 1 1-4 0z" fill="#ffc800"/></svg>