<svg xmlns="http://www.w3.org/2000/svg" width="67" height="49" viewBox="0 0 67 49"><path d="M21.86 6.33C7.59 7.51-.36-4.3 1.19 15.02c1.56 19.31 13.29 32.02 23.88 31.15 10.6-.87 20.14-15.34 18.58-34.65-1.56-19.31-7.57-6.36-21.79-5.19zM6.19 18.6c-.07-.82 2.58-3.01 6.03-3.29 3.46-.29 6.59 3.45 6.65 4.22.08 1.03-2.73 1.42-6.2 1.34-3.61-.1-6.42-1.42-6.48-2.27zm18.19 19c-4.54.37-8.64-4.51-8.83-6.94-.05-.65 1.87 2.34 8.42 1.8 6.53-.54 7.96-3.83 8.02-3.16.19 2.43-3.07 7.93-7.61 8.3zm8.88-18.43c-3.43.56-6.26.55-6.33-.3-.07-.82 2.42-4.97 5.88-5.26 3.46-.28 6.42 1.5 6.49 2.27.08 1.03-2.51 2.72-6.04 3.29z" fill="#ffc800"/><path d="M48.24 13.37c-.34-.07-.33.23-.32.39.64 7.85-.37 14.96-3.22 21.18-.2.43.11.56.26.62 2.89 1.11 5.43 3.73 4.91 6.21-.06.3-2.05-1.75-6.83-2.8-.04-.01-.09-.02-.14-.03-.09-.01-.31 0-.47.27-1.92 3.12-3.76 5.1-6.32 6.86-.23.17-.05.35.06.42 1.46 1.07 3.05 1.8 4.71 2.16 9.38 1.99 21.31-8.03 24.87-25.13 3.57-17.11-4.9-7.56-17.51-10.15zm12.58 14.17c-.3 1-3.13 1.3-6.13.39-2.99-.92-5.14-2.61-4.89-3.43.24-.8 2.83-2.29 6.5-1.25 3.02.85 4.74 3.55 4.52 4.29z" fill="#7570b4"/></svg>