<svg xmlns="http://www.w3.org/2000/svg" width="35" height="49" viewBox="0 0 35 49"><path d="M19.87 37l-2.13-1.04L15.6 37A6.012 6.012 0 0 1 8 35v11.22c0 .69.36 1.33.95 1.7.32.19.69.29 1.05.29.31 0 .62-.07.9-.21l6.84-3.4 6.83 3.4c.63.31 1.36.28 1.95-.08.59-.37.95-1.01.95-1.7V35a5.999 5.999 0 0 1-4.96 2.61c-.9 0-1.82-.21-2.64-.61z" fill="#7570b4"/><path d="M.01 16.47c-.05.55.14 1.12.55 1.55l3.02 3.11-.61 4.28c-.01.06-.01.13-.02.2-.04.98.66 1.87 1.66 2.04l4.28.75 2.03 3.81a1.99 1.99 0 0 0 1.77 1.06c.3 0 .6-.06.88-.2l3.9-1.9 3.9 1.9c.28.14.58.2.88.2.72 0 1.41-.38 1.77-1.06l2.03-3.81 4.28-.75a2 2 0 0 0 1.66-2.05c-.01-.06-.01-.13-.02-.19l-.61-4.28 3.02-3.11c.37-.38.56-.88.56-1.38 0-.5-.19-1-.56-1.39l-3.02-3.11.61-4.27c.01-.07.01-.14.02-.2.04-.99-.66-1.87-1.66-2.05l-4.28-.74-2.03-3.82-.09-.15a.138.138 0 0 0-.03-.04l-.09-.12c0-.01-.01-.02-.02-.03-.03-.04-.07-.08-.11-.12l-.03-.03c-.03-.03-.07-.06-.1-.09a.138.138 0 0 0-.04-.03c-.04-.04-.09-.07-.13-.1l-.01-.01c-.05-.03-.09-.06-.14-.08-.01-.01-.02-.02-.04-.02-.04-.03-.09-.05-.13-.07-.01 0-.01 0-.02-.01-.05-.02-.11-.04-.16-.06-.01 0-.02 0-.03-.01a.737.737 0 0 1-.14-.04h-.04a.467.467 0 0 0-.17-.03h-.01c-.05-.01-.11-.01-.16-.02h-.14c-.04 0-.08.01-.12.01-.03 0-.06.01-.09.01-.04.01-.08.01-.12.02-.03.01-.06.01-.09.02-.04.01-.08.02-.13.04-.02 0-.05.01-.07.02-.06.02-.12.05-.18.07-.01.01-.01.01-.02.01l-3.9 1.9-3.9-1.9c-.01 0-.01 0-.02-.01-.06-.02-.12-.05-.18-.07a.188.188 0 0 0-.08-.02.564.564 0 0 0-.12-.04c-.03-.01-.06-.01-.09-.02-.04-.01-.08-.01-.12-.02-.03 0-.06-.01-.09-.01-.04 0-.08-.01-.12-.01h-.14c-.06.01-.11.01-.17.02-.06 0-.12.01-.18.03h-.02c-.05.02-.1.03-.15.04-.01.01-.02.01-.03.01-.05.02-.11.04-.16.06l-.01.01c-.05.02-.1.04-.15.07-.01 0-.02.01-.03.02-.1.05-.2.12-.29.19-.01.01-.01.02-.02.02-.04.04-.08.07-.12.11 0 0-.01.01-.02.01-.04.05-.08.09-.12.14 0 0-.01.01-.01.02l-.09.12c-.01.01-.02.02-.03.04l-.09.15-2.03 3.82-4.28.74c-1 .18-1.7 1.06-1.66 2.05.01.06.01.13.02.2l.61 4.27-3.02 3.11c-.33.34-.52.78-.55 1.22zM17.47 9.3c4.05 0 7.35 3.29 7.35 7.32s-3.3 7.31-7.35 7.31-7.35-3.28-7.35-7.31c0-4.03 3.3-7.32 7.35-7.32z" fill="#ffc800"/></svg>